<svg xmlns="http://www.w3.org/2000/svg" version="1.1" xmlns:xlink="http://www.w3.org/1999/xlink" xmlns:svgjs="http://svgjs.dev/svgjs" width="100%" height="100%" viewBox="0 0 1000 600"><rect width="1000" height="600" x="0" y="0" fill="#649237"/><g><circle r="166.66666666666666" cx="316.33141581217444" cy="338.55369791139367" fill="#1d2a10" transform="matrix(0.8351993457062299,0,0,0.83519934570623,0,17.240131749037957)"/><path d="M376.9681589252607 396.8576895377469L350.99985046133446 413.3482989803759L315.7005565832516 358.62412351684765L281.69234244800805 413.553698030373L258.8637051768955 402.3447784448139L300.50102688346203 338.9645001599769L255.69469126265363 281.5114516036293L281.8977414980052 264.40464501100894L315.90595563324877 317.2215435817065L348.6524327470812 263.5537060895922L370.8355301467742 276.64055984655386L332.19116602588053 336.85182421714904L376.9681589252607 396.8576895377469Z " fill="#b1df84" transform="matrix(0.8351993457062299,0,0,0.83519934570623,0,17.240131749037957)"/><path d="M601.9982769888038 272.5188399103315L627.0951230130954 349.2205567563473L629.0873753987062 349.2205567563473L658.1687261942194 273.5149661031369L685.6728771844574 274.2897309197633L686.4753121731062 359.95658350102775L690.2384555681488 411.3677631185954L663.343048362403 411.3677631185954L664.3391745552084 359.56920109271454L662.153230965441 307.16189528234156L638.2462023381114 373.12758538367694L613.758100098312 374.31740278063893L591.4282712762575 307.16189528234156L589.6297100948034 359.56920109271454L591.0408888679443 411.3677631185954L566.3314252519659 411.3677631185954L569.1261126262254 362.944962079444L570.3159300231875 277.4994708743585L601.9982769888038 272.5188399103315ZM737.6651304144948 411.3677631185954L737.6651304144948 411.3677631185954Q726.901433497792 411.3677631185954 720.2329220404004 404.28419908086806Q713.5644105830086 397.2283052151632 713.5644105830086 385.66217330981164L713.5644105830086 385.66217330981164L714.7542279799707 362.7512708752874L712.5682843902032 314.93721362062814L739.2700003917925 309.9565826566012L736.6690042216894 370.526589213574Q736.6690042216894 379.10434254050944 739.7680634881951 383.08884731173094Q742.8394525826784 387.07335208295257 749.6186447281597 387.07335208295257Q756.3978368736409 387.07335208295257 768.3513511873057 380.2941599374714L768.3513511873057 380.2941599374714L768.3513511873057 368.34064562380655L766.1654075975382 315.9333398134335L793.0608148032841 310.9527088494066L790.6535098373377 360.75901848967663L790.8472010414943 377.11209015489857Q790.8472010414943 389.84036928518987 797.4327019828189 402.79000979166L797.4327019828189 402.79000979166L776.707743138062 411.97650690308757Q770.1499123687598 399.02686639661744 768.7387335956189 391.2515480583308L768.7387335956189 391.2515480583308Q750.8084621251217 411.3677631185954 737.6651304144948 411.3677631185954ZM845.4404504416348 392.828747863606L845.4404504416348 392.828747863606Q855.8167649500243 392.828747863606 855.8167649500243 383.66992092420077L855.8167649500243 383.66992092420077Q855.8167649500243 380.487851141628 851.3341970824 377.6931637673684Q846.8516292147757 374.89847639310875 840.3768089615405 372.13145919087157Q833.9019887083055 369.33677181661193 827.4271684550704 365.8503301417931Q820.9523482018353 362.3638884669742 816.469780334211 356.1934401059852Q811.9872124665867 349.99532157297375 811.9872124665867 342.0263120305306L811.9872124665867 342.0263120305306Q811.9872124665867 328.68928911574716 823.7193654040725 318.72802718769316Q835.4791885135808 308.7667652596392 850.8361339859973 308.7667652596392L850.8361339859973 308.7667652596392Q858.0027085397917 308.7667652596392 864.86491120134 310.4546457530039Q871.7547840349107 312.1425262463686 878.1189236000564 315.7396486092769L878.1189236000564 315.7396486092769L864.7819006852728 340.03405964491975Q863.370721912132 338.84424224795777 861.1847783223645 337.0456810665036Q858.9988347325971 335.2747900570717 852.9113968876752 332.3694219947227Q846.8516292147757 329.4917241043959 842.1476999709724 329.4917241043959Q837.4714408991915 329.4917241043959 834.981125417178 331.56698700607393Q832.4908099351645 333.66992007977416 832.4908099351645 337.3500529587497Q832.4908099351645 341.0301858377251 839.3806827687351 344.737988888723Q846.2428854302835 348.41812176769855 854.4055861768834 351.48951086218193Q862.5682869234831 354.58857012868765 869.4581597570539 361.6721341664149Q876.3203624186021 368.72802803211977 876.3203624186021 378.49559875601716L876.3203624186021 378.49559875601716Q876.3203624186021 392.4413654552928 864.86491120134 403.01137116783894Q853.4094599840779 413.55370670836277 838.4675670919969 413.55370670836277L838.4675670919969 413.55370670836277Q828.9213577442786 413.55370670836277 820.6479763095892 409.37551073298465Q812.3745948748999 405.1973147576064 808.7774725119915 401.0191187822282L808.7774725119915 401.0191187822282L805.2080203211056 396.8132526348276L820.9523482018353 378.49559875601716Q822.1421655987973 380.1004687333148 824.3281091885647 382.4801035272388Q826.5140527783321 384.85973832116275 832.9888730315672 388.8442430923844Q839.4636932848023 392.828747863606 845.4404504416348 392.828747863606ZM893.8632514807862 314.93721362062814L920.5649674823753 309.9565826566012L918.157662516429 359.56920109271454L920.3436061061964 406.3871321545684L893.6695602766295 411.3677631185954L896.0491950705535 362.944962079444L893.8632514807862 314.93721362062814ZM892.4520727076451 280.76455117299844Q892.4520727076451 274.0960397156067 897.6540650478512 268.8110368593336Q902.8283872160348 263.5537041750829 909.607579361516 263.5537041750829Q916.3591013349749 263.5537041750829 919.9562236978832 267.2338370540584Q923.5533460607916 270.91396993303397 923.5533460607916 278.27423569098494Q923.5533460607916 285.66217162095836 918.462034408675 290.94717447723144Q913.3707227565585 296.2045071614822 906.702211299167 296.2045071614822Q900.0336998417752 296.2045071614822 896.2428862747101 291.83261998194735Q892.4520727076451 287.4607328024125 892.4520727076451 280.76455117299844ZM1047.6540675811311 397.6156876234764L1023.1659653413316 413.16632430004955L989.8787483984179 361.5614534783254L957.8090190244884 413.36001550420616L936.2816251910828 402.79000979166L975.5455992908289 343.022438223336L933.2932466126666 288.8442414035311L958.0027102286449 272.7125311144881L990.0724396025744 322.5188407547582L1020.9523515795418 271.91009612583935L1041.8710016284554 284.2509928478173L1005.429385074991 341.0301858377251L1047.6540675811311 397.6156876234764Z " fill="#e9f6dc" transform="matrix(0.8351993457062299,0,0,0.83519934570623,0,17.240131749037957)"/></g></svg>